<mxfile host="65bd71144e">
    <diagram id="4oXwMO3bqMy_1eBwCIUz" name="Basis">
        <mxGraphModel dx="947" dy="420" grid="1" gridSize="10" guides="1" tooltips="1" connect="1" arrows="1" fold="1" page="1" pageScale="1" pageWidth="827" pageHeight="1169" math="0" shadow="0">
            <root>
                <mxCell id="0"/>
                <mxCell id="1" parent="0"/>
                <mxCell id="2" value="Kino" style="shape=umlFrame;whiteSpace=wrap;html=1;" parent="1" vertex="1">
                    <mxGeometry x="160" y="40" width="520" height="320" as="geometry"/>
                </mxCell>
                <mxCell id="3" value="Kunde" style="shape=umlActor;verticalLabelPosition=bottom;verticalAlign=top;html=1;" parent="1" vertex="1">
                    <mxGeometry x="60" y="100" width="30" height="60" as="geometry"/>
                </mxCell>
                <mxCell id="7" value="Karte kaufen" style="ellipse;whiteSpace=wrap;html=1;" parent="1" vertex="1">
                    <mxGeometry x="200" y="100" width="100" height="60" as="geometry"/>
                </mxCell>
                <mxCell id="8" value="reservierte Karten&amp;nbsp;" style="ellipse;whiteSpace=wrap;html=1;" parent="1" vertex="1">
                    <mxGeometry x="520" y="60" width="120" height="50" as="geometry"/>
                </mxCell>
                <mxCell id="9" value="Popcorn + Cola&lt;br&gt;dazubestellen" style="ellipse;whiteSpace=wrap;html=1;" parent="1" vertex="1">
                    <mxGeometry x="520" y="140" width="120" height="50" as="geometry"/>
                </mxCell>
                <mxCell id="12" value="extend" style="endArrow=open;endSize=12;dashed=1;html=1;exitX=0;exitY=0.5;exitDx=0;exitDy=0;entryX=1;entryY=0.5;entryDx=0;entryDy=0;" parent="1" source="9" target="7" edge="1">
                    <mxGeometry x="0.0588" width="160" relative="1" as="geometry">
                        <mxPoint x="485" y="160" as="sourcePoint"/>
                        <mxPoint x="315" y="160" as="targetPoint"/>
                        <mxPoint as="offset"/>
                    </mxGeometry>
                </mxCell>
                <mxCell id="13" value="extend" style="endArrow=open;endSize=12;dashed=1;html=1;exitX=0;exitY=0.5;exitDx=0;exitDy=0;entryX=0.94;entryY=0.251;entryDx=0;entryDy=0;entryPerimeter=0;" parent="1" source="8" target="7" edge="1">
                    <mxGeometry width="160" relative="1" as="geometry">
                        <mxPoint x="430" y="60" as="sourcePoint"/>
                        <mxPoint x="260" y="60" as="targetPoint"/>
                        <Array as="points"/>
                    </mxGeometry>
                </mxCell>
                <mxCell id="14" value="use" style="endArrow=open;endSize=12;dashed=1;html=1;exitX=0.5;exitY=1;exitDx=0;exitDy=0;entryX=0.5;entryY=0;entryDx=0;entryDy=0;" parent="1" source="7" target="16" edge="1">
                    <mxGeometry width="160" relative="1" as="geometry">
                        <mxPoint x="430" y="248.57" as="sourcePoint"/>
                        <mxPoint x="250" y="240" as="targetPoint"/>
                    </mxGeometry>
                </mxCell>
                <mxCell id="16" value="bezahlen" style="ellipse;whiteSpace=wrap;html=1;" parent="1" vertex="1">
                    <mxGeometry x="200" y="250" width="100" height="60" as="geometry"/>
                </mxCell>
                <mxCell id="17" value="Kreditkarte" style="ellipse;whiteSpace=wrap;html=1;" parent="1" vertex="1">
                    <mxGeometry x="380" y="250" width="100" height="60" as="geometry"/>
                </mxCell>
                <mxCell id="18" value="Karte&lt;br&gt;prüfen" style="ellipse;whiteSpace=wrap;html=1;" parent="1" vertex="1">
                    <mxGeometry x="550" y="250" width="100" height="60" as="geometry"/>
                </mxCell>
                <mxCell id="20" value="extend" style="endArrow=open;endSize=12;dashed=1;html=1;entryX=1;entryY=0.5;entryDx=0;entryDy=0;exitX=0;exitY=0.5;exitDx=0;exitDy=0;" parent="1" source="17" target="16" edge="1">
                    <mxGeometry width="160" relative="1" as="geometry">
                        <mxPoint x="440" y="190" as="sourcePoint"/>
                        <mxPoint x="270" y="190" as="targetPoint"/>
                    </mxGeometry>
                </mxCell>
                <mxCell id="21" value="use" style="endArrow=open;endSize=12;dashed=1;html=1;entryX=0;entryY=0.5;entryDx=0;entryDy=0;exitX=1;exitY=0.5;exitDx=0;exitDy=0;" parent="1" source="17" target="18" edge="1">
                    <mxGeometry width="160" relative="1" as="geometry">
                        <mxPoint x="440" y="190" as="sourcePoint"/>
                        <mxPoint x="270" y="190" as="targetPoint"/>
                    </mxGeometry>
                </mxCell>
                <mxCell id="23" value="" style="endArrow=none;html=1;rounded=0;" parent="1" source="3" target="7" edge="1">
                    <mxGeometry relative="1" as="geometry">
                        <mxPoint x="270" y="190" as="sourcePoint"/>
                        <mxPoint x="430" y="190" as="targetPoint"/>
                    </mxGeometry>
                </mxCell>
            </root>
        </mxGraphModel>
    </diagram>
    <diagram name="Variante_1" id="s6rDpPk_hWQTFqar5djX">
        <mxGraphModel dx="947" dy="420" grid="1" gridSize="10" guides="1" tooltips="1" connect="1" arrows="1" fold="1" page="1" pageScale="1" pageWidth="827" pageHeight="1169" math="0" shadow="0">
            <root>
                <mxCell id="ywVQA88eKAAZCpWnAmLL-0"/>
                <mxCell id="ywVQA88eKAAZCpWnAmLL-1" parent="ywVQA88eKAAZCpWnAmLL-0"/>
                <mxCell id="ywVQA88eKAAZCpWnAmLL-2" value="Kino" style="shape=umlFrame;whiteSpace=wrap;html=1;" parent="ywVQA88eKAAZCpWnAmLL-1" vertex="1">
                    <mxGeometry x="160" y="40" width="520" height="320" as="geometry"/>
                </mxCell>
                <mxCell id="ywVQA88eKAAZCpWnAmLL-3" value="Kunde" style="shape=umlActor;verticalLabelPosition=bottom;verticalAlign=top;html=1;" parent="ywVQA88eKAAZCpWnAmLL-1" vertex="1">
                    <mxGeometry x="60" y="100" width="30" height="60" as="geometry"/>
                </mxCell>
                <mxCell id="ywVQA88eKAAZCpWnAmLL-4" value="Karte kaufen" style="ellipse;whiteSpace=wrap;html=1;" parent="ywVQA88eKAAZCpWnAmLL-1" vertex="1">
                    <mxGeometry x="200" y="100" width="100" height="60" as="geometry"/>
                </mxCell>
                <mxCell id="ywVQA88eKAAZCpWnAmLL-5" value="reservierte Karten&amp;nbsp;" style="ellipse;whiteSpace=wrap;html=1;" parent="ywVQA88eKAAZCpWnAmLL-1" vertex="1">
                    <mxGeometry x="520" y="60" width="120" height="50" as="geometry"/>
                </mxCell>
                <mxCell id="ywVQA88eKAAZCpWnAmLL-6" value="Popcorn + Cola&lt;br&gt;dazubestellen" style="ellipse;whiteSpace=wrap;html=1;" parent="ywVQA88eKAAZCpWnAmLL-1" vertex="1">
                    <mxGeometry x="520" y="140" width="120" height="50" as="geometry"/>
                </mxCell>
                <mxCell id="ywVQA88eKAAZCpWnAmLL-7" value="extend" style="endArrow=open;endSize=12;dashed=1;html=1;exitX=0;exitY=0.5;exitDx=0;exitDy=0;entryX=1;entryY=0.5;entryDx=0;entryDy=0;" parent="ywVQA88eKAAZCpWnAmLL-1" source="ywVQA88eKAAZCpWnAmLL-6" target="ywVQA88eKAAZCpWnAmLL-4" edge="1">
                    <mxGeometry x="0.0588" width="160" relative="1" as="geometry">
                        <mxPoint x="485" y="160" as="sourcePoint"/>
                        <mxPoint x="315" y="160" as="targetPoint"/>
                        <mxPoint as="offset"/>
                    </mxGeometry>
                </mxCell>
                <mxCell id="ywVQA88eKAAZCpWnAmLL-8" value="extend" style="endArrow=open;endSize=12;dashed=1;html=1;exitX=0;exitY=0.5;exitDx=0;exitDy=0;entryX=0.94;entryY=0.251;entryDx=0;entryDy=0;entryPerimeter=0;" parent="ywVQA88eKAAZCpWnAmLL-1" source="ywVQA88eKAAZCpWnAmLL-5" target="ywVQA88eKAAZCpWnAmLL-4" edge="1">
                    <mxGeometry width="160" relative="1" as="geometry">
                        <mxPoint x="430" y="60" as="sourcePoint"/>
                        <mxPoint x="260" y="60" as="targetPoint"/>
                        <Array as="points"/>
                    </mxGeometry>
                </mxCell>
                <mxCell id="ywVQA88eKAAZCpWnAmLL-9" value="use" style="endArrow=open;endSize=12;dashed=1;html=1;exitX=0.5;exitY=1;exitDx=0;exitDy=0;entryX=0.5;entryY=0;entryDx=0;entryDy=0;" parent="ywVQA88eKAAZCpWnAmLL-1" source="ywVQA88eKAAZCpWnAmLL-4" target="ywVQA88eKAAZCpWnAmLL-10" edge="1">
                    <mxGeometry width="160" relative="1" as="geometry">
                        <mxPoint x="430" y="248.57" as="sourcePoint"/>
                        <mxPoint x="250" y="240" as="targetPoint"/>
                    </mxGeometry>
                </mxCell>
                <mxCell id="ywVQA88eKAAZCpWnAmLL-10" value="bezahlen" style="ellipse;whiteSpace=wrap;html=1;" parent="ywVQA88eKAAZCpWnAmLL-1" vertex="1">
                    <mxGeometry x="200" y="250" width="100" height="60" as="geometry"/>
                </mxCell>
                <mxCell id="ywVQA88eKAAZCpWnAmLL-11" value="Kreditkarte" style="ellipse;whiteSpace=wrap;html=1;" parent="ywVQA88eKAAZCpWnAmLL-1" vertex="1">
                    <mxGeometry x="380" y="250" width="100" height="60" as="geometry"/>
                </mxCell>
                <mxCell id="ywVQA88eKAAZCpWnAmLL-12" value="Karte&lt;br&gt;prüfen" style="ellipse;whiteSpace=wrap;html=1;" parent="ywVQA88eKAAZCpWnAmLL-1" vertex="1">
                    <mxGeometry x="550" y="250" width="100" height="60" as="geometry"/>
                </mxCell>
                <mxCell id="ywVQA88eKAAZCpWnAmLL-13" value="extend" style="endArrow=open;endSize=12;dashed=1;html=1;entryX=1;entryY=0.5;entryDx=0;entryDy=0;exitX=0;exitY=0.5;exitDx=0;exitDy=0;" parent="ywVQA88eKAAZCpWnAmLL-1" source="ywVQA88eKAAZCpWnAmLL-11" target="ywVQA88eKAAZCpWnAmLL-10" edge="1">
                    <mxGeometry width="160" relative="1" as="geometry">
                        <mxPoint x="440" y="190" as="sourcePoint"/>
                        <mxPoint x="270" y="190" as="targetPoint"/>
                    </mxGeometry>
                </mxCell>
                <mxCell id="ywVQA88eKAAZCpWnAmLL-14" value="use" style="endArrow=open;endSize=12;dashed=1;html=1;entryX=0;entryY=0.5;entryDx=0;entryDy=0;exitX=1;exitY=0.5;exitDx=0;exitDy=0;" parent="ywVQA88eKAAZCpWnAmLL-1" source="ywVQA88eKAAZCpWnAmLL-11" target="ywVQA88eKAAZCpWnAmLL-12" edge="1">
                    <mxGeometry width="160" relative="1" as="geometry">
                        <mxPoint x="440" y="190" as="sourcePoint"/>
                        <mxPoint x="270" y="190" as="targetPoint"/>
                    </mxGeometry>
                </mxCell>
                <mxCell id="ywVQA88eKAAZCpWnAmLL-15" value="" style="endArrow=none;html=1;rounded=0;" parent="ywVQA88eKAAZCpWnAmLL-1" source="ywVQA88eKAAZCpWnAmLL-3" target="ywVQA88eKAAZCpWnAmLL-4" edge="1">
                    <mxGeometry relative="1" as="geometry">
                        <mxPoint x="270" y="190" as="sourcePoint"/>
                        <mxPoint x="430" y="190" as="targetPoint"/>
                    </mxGeometry>
                </mxCell>
                <mxCell id="ywVQA88eKAAZCpWnAmLL-16" value="VISA" style="shape=umlActor;verticalLabelPosition=bottom;verticalAlign=top;html=1;" parent="ywVQA88eKAAZCpWnAmLL-1" vertex="1">
                    <mxGeometry x="740" y="250" width="30" height="60" as="geometry"/>
                </mxCell>
                <mxCell id="ywVQA88eKAAZCpWnAmLL-17" value="" style="endArrow=none;html=1;rounded=0;entryX=0.5;entryY=0.5;entryDx=0;entryDy=0;entryPerimeter=0;exitX=1;exitY=0.5;exitDx=0;exitDy=0;" parent="ywVQA88eKAAZCpWnAmLL-1" source="ywVQA88eKAAZCpWnAmLL-12" target="ywVQA88eKAAZCpWnAmLL-16" edge="1">
                    <mxGeometry relative="1" as="geometry">
                        <mxPoint x="100" y="140" as="sourcePoint"/>
                        <mxPoint x="210" y="140" as="targetPoint"/>
                    </mxGeometry>
                </mxCell>
            </root>
        </mxGraphModel>
    </diagram>
    <diagram name="Variante_2" id="Rc4WyeyI6nAVEqzFjp0S">
        <mxGraphModel dx="1150" dy="510" grid="1" gridSize="10" guides="1" tooltips="1" connect="1" arrows="1" fold="1" page="1" pageScale="1" pageWidth="827" pageHeight="1169" math="0" shadow="0">
            <root>
                <mxCell id="wMaamiNFmIJV2lm9jemz-0"/>
                <mxCell id="wMaamiNFmIJV2lm9jemz-1" parent="wMaamiNFmIJV2lm9jemz-0"/>
                <mxCell id="wMaamiNFmIJV2lm9jemz-2" value="Kino" style="shape=umlFrame;whiteSpace=wrap;html=1;" vertex="1" parent="wMaamiNFmIJV2lm9jemz-1">
                    <mxGeometry x="160" y="40" width="520" height="320" as="geometry"/>
                </mxCell>
                <mxCell id="wMaamiNFmIJV2lm9jemz-3" value="Kunde" style="shape=umlActor;verticalLabelPosition=bottom;verticalAlign=top;html=1;" vertex="1" parent="wMaamiNFmIJV2lm9jemz-1">
                    <mxGeometry x="60" y="100" width="30" height="60" as="geometry"/>
                </mxCell>
                <mxCell id="wMaamiNFmIJV2lm9jemz-4" value="Karte kaufen" style="ellipse;whiteSpace=wrap;html=1;" vertex="1" parent="wMaamiNFmIJV2lm9jemz-1">
                    <mxGeometry x="200" y="100" width="100" height="60" as="geometry"/>
                </mxCell>
                <mxCell id="wMaamiNFmIJV2lm9jemz-5" value="reservierte Karten&amp;nbsp;" style="ellipse;whiteSpace=wrap;html=1;" vertex="1" parent="wMaamiNFmIJV2lm9jemz-1">
                    <mxGeometry x="520" y="60" width="120" height="50" as="geometry"/>
                </mxCell>
                <mxCell id="wMaamiNFmIJV2lm9jemz-6" value="Popcorn + Cola&lt;br&gt;dazubestellen" style="ellipse;whiteSpace=wrap;html=1;" vertex="1" parent="wMaamiNFmIJV2lm9jemz-1">
                    <mxGeometry x="520" y="140" width="120" height="50" as="geometry"/>
                </mxCell>
                <mxCell id="wMaamiNFmIJV2lm9jemz-7" value="extend" style="endArrow=open;endSize=12;dashed=1;html=1;exitX=0;exitY=0.5;exitDx=0;exitDy=0;entryX=1;entryY=0.5;entryDx=0;entryDy=0;" edge="1" parent="wMaamiNFmIJV2lm9jemz-1" source="wMaamiNFmIJV2lm9jemz-6" target="wMaamiNFmIJV2lm9jemz-4">
                    <mxGeometry x="0.0588" width="160" relative="1" as="geometry">
                        <mxPoint x="485" y="160" as="sourcePoint"/>
                        <mxPoint x="315" y="160" as="targetPoint"/>
                        <mxPoint as="offset"/>
                    </mxGeometry>
                </mxCell>
                <mxCell id="wMaamiNFmIJV2lm9jemz-8" value="extend" style="endArrow=open;endSize=12;dashed=1;html=1;exitX=0;exitY=0.5;exitDx=0;exitDy=0;entryX=0.94;entryY=0.251;entryDx=0;entryDy=0;entryPerimeter=0;" edge="1" parent="wMaamiNFmIJV2lm9jemz-1" source="wMaamiNFmIJV2lm9jemz-5" target="wMaamiNFmIJV2lm9jemz-4">
                    <mxGeometry width="160" relative="1" as="geometry">
                        <mxPoint x="430" y="60" as="sourcePoint"/>
                        <mxPoint x="260" y="60" as="targetPoint"/>
                        <Array as="points"/>
                    </mxGeometry>
                </mxCell>
                <mxCell id="wMaamiNFmIJV2lm9jemz-9" value="use" style="endArrow=open;endSize=12;dashed=1;html=1;exitX=0.5;exitY=1;exitDx=0;exitDy=0;entryX=0.5;entryY=0;entryDx=0;entryDy=0;" edge="1" parent="wMaamiNFmIJV2lm9jemz-1" source="wMaamiNFmIJV2lm9jemz-4" target="wMaamiNFmIJV2lm9jemz-10">
                    <mxGeometry width="160" relative="1" as="geometry">
                        <mxPoint x="430" y="248.57" as="sourcePoint"/>
                        <mxPoint x="250" y="240" as="targetPoint"/>
                    </mxGeometry>
                </mxCell>
                <mxCell id="wMaamiNFmIJV2lm9jemz-10" value="bezahlen" style="ellipse;whiteSpace=wrap;html=1;" vertex="1" parent="wMaamiNFmIJV2lm9jemz-1">
                    <mxGeometry x="200" y="250" width="100" height="60" as="geometry"/>
                </mxCell>
                <mxCell id="wMaamiNFmIJV2lm9jemz-11" value="ext. Payment" style="ellipse;whiteSpace=wrap;html=1;" vertex="1" parent="wMaamiNFmIJV2lm9jemz-1">
                    <mxGeometry x="470" y="250" width="100" height="60" as="geometry"/>
                </mxCell>
                <mxCell id="wMaamiNFmIJV2lm9jemz-13" value="extend" style="endArrow=open;endSize=12;dashed=1;html=1;entryX=1;entryY=0.5;entryDx=0;entryDy=0;exitX=0;exitY=0.5;exitDx=0;exitDy=0;" edge="1" parent="wMaamiNFmIJV2lm9jemz-1" source="wMaamiNFmIJV2lm9jemz-11" target="wMaamiNFmIJV2lm9jemz-10">
                    <mxGeometry width="160" relative="1" as="geometry">
                        <mxPoint x="440" y="190" as="sourcePoint"/>
                        <mxPoint x="270" y="190" as="targetPoint"/>
                    </mxGeometry>
                </mxCell>
                <mxCell id="wMaamiNFmIJV2lm9jemz-15" value="" style="endArrow=none;html=1;rounded=0;" edge="1" parent="wMaamiNFmIJV2lm9jemz-1" source="wMaamiNFmIJV2lm9jemz-3" target="wMaamiNFmIJV2lm9jemz-4">
                    <mxGeometry relative="1" as="geometry">
                        <mxPoint x="270" y="190" as="sourcePoint"/>
                        <mxPoint x="430" y="190" as="targetPoint"/>
                    </mxGeometry>
                </mxCell>
                <mxCell id="wMaamiNFmIJV2lm9jemz-16" value="Stripe" style="shape=umlActor;verticalLabelPosition=bottom;verticalAlign=top;html=1;" vertex="1" parent="wMaamiNFmIJV2lm9jemz-1">
                    <mxGeometry x="740" y="250" width="30" height="60" as="geometry"/>
                </mxCell>
                <mxCell id="wMaamiNFmIJV2lm9jemz-17" value="" style="endArrow=none;html=1;rounded=0;entryX=0.5;entryY=0.5;entryDx=0;entryDy=0;entryPerimeter=0;exitX=1;exitY=0.5;exitDx=0;exitDy=0;" edge="1" parent="wMaamiNFmIJV2lm9jemz-1" source="wMaamiNFmIJV2lm9jemz-11" target="wMaamiNFmIJV2lm9jemz-16">
                    <mxGeometry relative="1" as="geometry">
                        <mxPoint x="650" y="280" as="sourcePoint"/>
                        <mxPoint x="210" y="140" as="targetPoint"/>
                    </mxGeometry>
                </mxCell>
            </root>
        </mxGraphModel>
    </diagram>
</mxfile>